# Blender v2.82 (sub 7) OBJ File: ''
# www.blender.org
v 0.000000 0.001630 -0.102796
v 0.000000 0.606309 -0.102796
v 0.020054 0.001630 -0.100820
v 0.020054 0.606309 -0.100820
v 0.039338 0.001630 -0.094971
v 0.039338 0.606309 -0.094971
v 0.057110 0.001630 -0.085471
v 0.057110 0.606309 -0.085471
v 0.072687 0.001630 -0.072687
v 0.072687 0.606309 -0.072687
v 0.085471 0.001630 -0.057110
v 0.085471 0.606309 -0.057110
v 0.094971 0.001630 -0.039338
v 0.094971 0.606309 -0.039338
v 0.100820 0.001630 -0.020054
v 0.100820 0.606309 -0.020054
v 0.102796 0.001630 -0.000000
v 0.102796 0.606309 -0.000000
v 0.100820 0.001630 0.020054
v 0.100820 0.606309 0.020054
v 0.094971 0.001630 0.039338
v 0.094971 0.606309 0.039338
v 0.085471 0.001630 0.057110
v 0.085471 0.606309 0.057110
v 0.072687 0.001630 0.072687
v 0.072687 0.606309 0.072687
v 0.057110 0.001630 0.085471
v 0.057110 0.606309 0.085471
v 0.039338 0.001630 0.094971
v 0.039338 0.606309 0.094971
v 0.020054 0.001630 0.100820
v 0.020054 0.606309 0.100820
v -0.000000 0.001630 0.102796
v -0.000000 0.606309 0.102796
v -0.020054 0.001630 0.100820
v -0.020054 0.606309 0.100820
v -0.039338 0.001630 0.094971
v -0.039338 0.606309 0.094971
v -0.057110 0.001630 0.085471
v -0.057110 0.606309 0.085471
v -0.072687 0.001630 0.072687
v -0.072687 0.606309 0.072687
v -0.085471 0.001630 0.057110
v -0.085471 0.606309 0.057110
v -0.094971 0.001630 0.039338
v -0.094971 0.606309 0.039338
v -0.100820 0.001630 0.020054
v -0.100820 0.606309 0.020054
v -0.102796 0.001630 -0.000000
v -0.102796 0.606309 -0.000000
v -0.100820 0.001630 -0.020055
v -0.100820 0.606309 -0.020055
v -0.094971 0.001630 -0.039338
v -0.094971 0.606309 -0.039338
v -0.085471 0.001630 -0.057110
v -0.085471 0.606309 -0.057110
v -0.072687 0.001630 -0.072687
v -0.072687 0.606309 -0.072687
v -0.057110 0.001630 -0.085471
v -0.057110 0.606309 -0.085471
v -0.039338 0.001630 -0.094971
v -0.039338 0.606309 -0.094971
v -0.020054 0.001630 -0.100820
v -0.020054 0.606309 -0.100820
v 0.000000 0.604753 -0.169310
v 0.035202 0.604753 -0.165610
v 0.068865 0.604753 -0.154673
v 0.099518 0.604753 -0.136975
v 0.125822 0.604753 -0.113291
v 0.146627 0.604753 -0.084655
v 0.161024 0.604753 -0.052320
v 0.168383 0.604753 -0.017698
v 0.168383 0.604753 0.017698
v 0.161024 0.604753 0.052320
v 0.146627 0.604753 0.084655
v 0.125822 0.604753 0.113291
v 0.099518 0.604753 0.136975
v 0.068865 0.604753 0.154673
v 0.035202 0.604753 0.165610
v -0.000000 0.604753 0.169310
v -0.035202 0.604753 0.165610
v -0.068865 0.604753 0.154673
v 0.000000 0.943373 0.000000
v -0.099518 0.604753 0.136975
v -0.125822 0.604753 0.113291
v -0.146627 0.604753 0.084655
v -0.161024 0.604753 0.052320
v -0.168383 0.604753 0.017698
v -0.168383 0.604753 -0.017698
v -0.161024 0.604753 -0.052320
v -0.146627 0.604753 -0.084655
v -0.125822 0.604753 -0.113291
v -0.099518 0.604753 -0.136975
v -0.068865 0.604753 -0.154672
v -0.035202 0.604753 -0.165610
vn 0.0980 0.0000 -0.9952
vn 0.2903 0.0000 -0.9569
vn 0.4714 0.0000 -0.8819
vn 0.6344 0.0000 -0.7730
vn 0.7730 0.0000 -0.6344
vn 0.8819 0.0000 -0.4714
vn 0.9569 0.0000 -0.2903
vn 0.9952 0.0000 -0.0980
vn 0.9952 0.0000 0.0980
vn 0.9569 0.0000 0.2903
vn 0.8819 0.0000 0.4714
vn 0.7730 0.0000 0.6344
vn 0.6344 0.0000 0.7730
vn 0.4714 0.0000 0.8819
vn 0.2903 0.0000 0.9569
vn 0.0980 0.0000 0.9952
vn -0.0980 0.0000 0.9952
vn -0.2903 0.0000 0.9569
vn -0.4714 0.0000 0.8819
vn -0.6344 0.0000 0.7730
vn -0.7730 0.0000 0.6344
vn -0.8819 0.0000 0.4714
vn -0.9569 0.0000 0.2903
vn -0.9952 0.0000 0.0980
vn -0.9952 0.0000 -0.0980
vn -0.9569 0.0000 -0.2903
vn -0.8819 0.0000 -0.4714
vn -0.7730 0.0000 -0.6344
vn -0.6344 0.0000 -0.7730
vn -0.4714 0.0000 -0.8819
vn 0.0000 1.0000 0.0000
vn -0.2903 0.0000 -0.9569
vn -0.0980 0.0000 -0.9952
vn 0.0000 -1.0000 -0.0000
vn 0.0936 0.4453 -0.8905
vn 0.2767 0.4453 -0.8516
vn 0.4477 0.4453 -0.7754
vn 0.5991 0.4453 -0.6654
vn 0.7244 0.4453 -0.5263
vn 0.8180 0.4453 -0.3642
vn 0.8758 0.4453 -0.1862
vn 0.8954 0.4453 0.0000
vn 0.8758 0.4453 0.1862
vn 0.8180 0.4453 0.3642
vn 0.7244 0.4453 0.5263
vn 0.5991 0.4453 0.6654
vn 0.4477 0.4453 0.7754
vn 0.2767 0.4453 0.8516
vn 0.0936 0.4453 0.8905
vn -0.0936 0.4453 0.8905
vn -0.2767 0.4453 0.8516
vn -0.4477 0.4453 0.7754
vn -0.5991 0.4453 0.6654
vn -0.7244 0.4453 0.5263
vn -0.8180 0.4453 0.3642
vn -0.8758 0.4453 0.1862
vn -0.8954 0.4453 0.0000
vn -0.8758 0.4453 -0.1862
vn -0.8180 0.4453 -0.3642
vn -0.7244 0.4453 -0.5263
vn -0.5991 0.4453 -0.6654
vn -0.4477 0.4453 -0.7754
vn -0.2767 0.4453 -0.8516
vn -0.0936 0.4453 -0.8905
s off
f 2//1 3//1 1//1
f 4//2 5//2 3//2
f 6//3 7//3 5//3
f 8//4 9//4 7//4
f 10//5 11//5 9//5
f 12//6 13//6 11//6
f 14//7 15//7 13//7
f 16//8 17//8 15//8
f 18//9 19//9 17//9
f 20//10 21//10 19//10
f 22//11 23//11 21//11
f 24//12 25//12 23//12
f 26//13 27//13 25//13
f 28//14 29//14 27//14
f 30//15 31//15 29//15
f 32//16 33//16 31//16
f 34//17 35//17 33//17
f 36//18 37//18 35//18
f 38//19 39//19 37//19
f 40//20 41//20 39//20
f 42//21 43//21 41//21
f 44//22 45//22 43//22
f 46//23 47//23 45//23
f 48//24 49//24 47//24
f 50//25 51//25 49//25
f 52//26 53//26 51//26
f 54//27 55//27 53//27
f 56//28 57//28 55//28
f 58//29 59//29 57//29
f 60//30 61//30 59//30
f 38//31 22//31 6//31
f 62//32 63//32 61//32
f 64//33 1//33 63//33
f 15//34 31//34 47//34
f 65//35 83//35 66//35
f 66//36 83//36 67//36
f 67//37 83//37 68//37
f 68//38 83//38 69//38
f 69//39 83//39 70//39
f 70//40 83//40 71//40
f 71//41 83//41 72//41
f 72//42 83//42 73//42
f 73//43 83//43 74//43
f 74//44 83//44 75//44
f 75//45 83//45 76//45
f 76//46 83//46 77//46
f 77//47 83//47 78//47
f 78//48 83//48 79//48
f 79//49 83//49 80//49
f 80//50 83//50 81//50
f 81//51 83//51 82//51
f 82//52 83//52 84//52
f 84//53 83//53 85//53
f 85//54 83//54 86//54
f 86//55 83//55 87//55
f 87//56 83//56 88//56
f 88//57 83//57 89//57
f 89//58 83//58 90//58
f 90//59 83//59 91//59
f 91//60 83//60 92//60
f 92//61 83//61 93//61
f 93//62 83//62 94//62
f 94//63 83//63 95//63
f 95//64 83//64 65//64
f 68//34 76//34 85//34
f 2//1 4//1 3//1
f 4//2 6//2 5//2
f 6//3 8//3 7//3
f 8//4 10//4 9//4
f 10//5 12//5 11//5
f 12//6 14//6 13//6
f 14//7 16//7 15//7
f 16//8 18//8 17//8
f 18//9 20//9 19//9
f 20//10 22//10 21//10
f 22//11 24//11 23//11
f 24//12 26//12 25//12
f 26//13 28//13 27//13
f 28//14 30//14 29//14
f 30//15 32//15 31//15
f 32//16 34//16 33//16
f 34//17 36//17 35//17
f 36//18 38//18 37//18
f 38//19 40//19 39//19
f 40//20 42//20 41//20
f 42//21 44//21 43//21
f 44//22 46//22 45//22
f 46//23 48//23 47//23
f 48//24 50//24 49//24
f 50//25 52//25 51//25
f 52//26 54//26 53//26
f 54//27 56//27 55//27
f 56//28 58//28 57//28
f 58//29 60//29 59//29
f 60//30 62//30 61//30
f 6//31 4//31 62//31
f 4//31 2//31 62//31
f 2//31 64//31 62//31
f 62//31 60//31 54//31
f 60//31 58//31 54//31
f 58//31 56//31 54//31
f 54//31 52//31 50//31
f 50//31 48//31 54//31
f 48//31 46//31 54//31
f 46//31 44//31 42//31
f 42//31 40//31 38//31
f 38//31 36//31 34//31
f 34//31 32//31 38//31
f 32//31 30//31 38//31
f 30//31 28//31 26//31
f 26//31 24//31 22//31
f 22//31 20//31 18//31
f 18//31 16//31 22//31
f 16//31 14//31 22//31
f 14//31 12//31 10//31
f 10//31 8//31 6//31
f 46//31 42//31 54//31
f 42//31 38//31 54//31
f 30//31 26//31 22//31
f 14//31 10//31 22//31
f 10//31 6//31 22//31
f 6//31 62//31 54//31
f 38//31 30//31 22//31
f 6//31 54//31 38//31
f 62//32 64//32 63//32
f 64//33 2//33 1//33
f 63//34 1//34 3//34
f 3//34 5//34 7//34
f 7//34 9//34 15//34
f 9//34 11//34 15//34
f 11//34 13//34 15//34
f 15//34 17//34 19//34
f 19//34 21//34 15//34
f 21//34 23//34 15//34
f 23//34 25//34 31//34
f 25//34 27//34 31//34
f 27//34 29//34 31//34
f 31//34 33//34 35//34
f 35//34 37//34 39//34
f 39//34 41//34 43//34
f 43//34 45//34 47//34
f 47//34 49//34 51//34
f 51//34 53//34 55//34
f 55//34 57//34 59//34
f 59//34 61//34 63//34
f 63//34 3//34 15//34
f 3//34 7//34 15//34
f 31//34 35//34 39//34
f 39//34 43//34 47//34
f 47//34 51//34 55//34
f 55//34 59//34 63//34
f 15//34 23//34 31//34
f 31//34 39//34 47//34
f 47//34 55//34 63//34
f 63//34 15//34 47//34
f 95//34 65//34 66//34
f 66//34 67//34 95//34
f 67//34 68//34 95//34
f 68//34 69//34 70//34
f 70//34 71//34 72//34
f 72//34 73//34 74//34
f 74//34 75//34 72//34
f 75//34 76//34 72//34
f 76//34 77//34 78//34
f 78//34 79//34 80//34
f 80//34 81//34 85//34
f 81//34 82//34 85//34
f 82//34 84//34 85//34
f 85//34 86//34 87//34
f 87//34 88//34 89//34
f 89//34 90//34 91//34
f 91//34 92//34 93//34
f 93//34 94//34 68//34
f 94//34 95//34 68//34
f 68//34 70//34 76//34
f 70//34 72//34 76//34
f 76//34 78//34 80//34
f 85//34 87//34 89//34
f 89//34 91//34 85//34
f 91//34 93//34 85//34
f 76//34 80//34 85//34
f 93//34 68//34 85//34
